<svg data-v-d3f97b9e="" xmlns="http://www.w3.org/2000/svg" viewBox="0 0 655 90"><!----><!----><!----><g data-v-d3f97b9e="" id="52161b34-ef90-431a-9aa7-7ab2c5f62972" fill="white" transform="matrix(4.341534104553623,0,0,4.341534104553623,128.7770738070953,1.6280771965562337)"><path d="M3.88 3.78L1.48 3.78L1.48 14L2.58 14L2.58 10.91L3.88 10.91C6.33 10.91 8.12 9.39 8.12 7.32C8.12 5.19 6.30 3.78 3.88 3.78ZM3.91 9.95L2.58 9.95L2.58 4.73L3.91 4.73C5.67 4.73 7 5.74 7 7.32C7 8.83 5.70 9.95 3.91 9.95ZM15.18 6.72L15.18 12.18C14.24 12.82 13.29 13.22 12.46 13.22C11.37 13.22 10.77 12.60 10.77 11.42L10.77 6.72L9.72 6.72L9.72 11.47C9.72 13.22 10.65 14.14 12.19 14.14C13.27 14.14 14.22 13.78 15.30 13.06L15.48 14L16.23 14L16.23 6.72ZM19.73 3.08L18.68 3.08L18.68 14L19.73 14ZM23.27 3.08L22.22 3.08L22.22 14L23.27 14ZM34.75 14L36.23 14.01L32.24 10.35C34.52 10.25 36.15 8.99 36.15 7.11C36.15 5.12 34.40 3.78 31.99 3.78L29.78 3.78L29.78 14L30.87 14L30.87 10.35ZM31.98 4.73C33.82 4.73 35.04 5.68 35.04 7.11C35.04 8.51 33.82 9.42 31.99 9.42L30.87 9.42L30.87 4.73ZM41.19 6.58C39.14 6.58 37.56 8.19 37.56 10.33C37.56 12.50 39.10 14.14 41.20 14.14C42.87 14.14 44.13 13.06 44.37 11.76L43.37 11.76C43.16 12.66 42.31 13.23 41.20 13.23C39.76 13.23 38.70 12.15 38.58 10.63L44.41 10.63L44.51 10.54C44.69 8.41 43.20 6.58 41.19 6.58ZM38.63 9.74C38.88 8.39 39.94 7.48 41.17 7.48C42.46 7.48 43.36 8.48 43.50 9.76ZM52.49 6.72L52.30 7.88C51.67 7.04 50.76 6.58 49.64 6.58C47.52 6.58 45.88 8.20 45.88 10.33C45.88 12.52 47.50 14.14 49.67 14.14C50.75 14.14 51.60 13.69 52.22 12.92L52.22 16.90L53.19 16.90L53.19 6.72ZM49.71 13.23C48.17 13.23 46.94 11.97 46.94 10.33C46.94 8.72 48.17 7.49 49.71 7.49C50.82 7.49 51.69 8.12 52.15 9.06L52.15 11.65C51.66 12.63 50.82 13.23 49.71 13.23ZM61.00 6.72L61.00 12.18C60.06 12.82 59.11 13.22 58.28 13.22C57.19 13.22 56.59 12.60 56.59 11.42L56.59 6.72L55.54 6.72L55.54 11.47C55.54 13.22 56.48 14.14 58.02 14.14C59.09 14.14 60.05 13.78 61.12 13.06L61.31 14L62.05 14L62.05 6.72ZM67.56 6.58C65.52 6.58 63.94 8.19 63.94 10.33C63.94 12.50 65.48 14.14 67.58 14.14C69.24 14.14 70.50 13.06 70.74 11.76L69.75 11.76C69.54 12.66 68.68 13.23 67.58 13.23C66.14 13.23 65.07 12.15 64.96 10.63L70.78 10.63L70.88 10.54C71.06 8.41 69.58 6.58 67.56 6.58ZM65.00 9.74C65.25 8.39 66.32 7.48 67.55 7.48C68.84 7.48 69.73 8.48 69.87 9.76ZM72.49 8.54C72.49 11.48 77.45 10.02 77.46 12.05C77.48 12.88 76.66 13.29 75.49 13.29C74.27 13.29 73.29 12.75 73.09 11.69L72.10 11.69C72.32 13.34 73.81 14.14 75.46 14.14C77.18 14.14 78.48 13.40 78.48 12.05C78.48 9.14 73.51 10.57 73.51 8.54C73.51 7.94 74.12 7.43 75.39 7.43C76.79 7.43 77.28 8.13 77.38 8.99L78.34 8.99C78.26 7.70 77.35 6.58 75.42 6.58C73.49 6.58 72.49 7.43 72.49 8.54ZM79.51 7.62L80.64 7.62L80.64 12.00C80.64 13.57 81.51 14.14 82.63 14.14C83.37 14.14 84.07 13.99 84.64 13.73L84.53 12.84C84.01 13.06 83.43 13.22 82.78 13.22C82.10 13.22 81.68 12.85 81.68 11.98L81.68 7.62L84.60 7.62L84.60 6.72L81.68 6.72L81.68 4.65L80.67 4.91L80.67 6.72L79.51 6.72ZM89.42 8.88C89.42 12.01 91.88 14.14 94.71 14.14C97.23 14.14 99.18 12.56 99.61 10.46L98.49 10.46C98.06 12.11 96.59 13.13 94.71 13.13C92.48 13.13 90.52 11.44 90.52 8.88C90.52 6.33 92.48 4.65 94.71 4.65C96.84 4.65 98.22 5.99 98.45 7.78L99.57 7.78C99.37 5.61 97.50 3.64 94.71 3.64C91.87 3.64 89.42 5.75 89.42 8.88ZM102.55 3.08L101.50 3.08L101.50 14L102.55 14ZM110.39 6.72L110.39 12.18C109.45 12.82 108.50 13.22 107.67 13.22C106.58 13.22 105.98 12.60 105.98 11.42L105.98 6.72L104.93 6.72L104.93 11.47C104.93 13.22 105.87 14.14 107.41 14.14C108.49 14.14 109.44 13.78 110.52 13.06L110.70 14L111.44 14L111.44 6.72ZM117.60 6.58C116.41 6.58 115.49 6.99 114.86 7.78L114.86 3.08L113.86 3.08L113.86 14L114.58 14L114.79 12.87C115.42 13.69 116.31 14.14 117.59 14.14C119.57 14.14 121.20 12.46 121.20 10.33C121.20 8.23 119.56 6.58 117.60 6.58ZM117.52 13.23C116.24 13.23 115.40 12.61 114.90 11.61L114.90 9.10C115.37 8.13 116.23 7.49 117.52 7.49C118.90 7.49 120.13 8.72 120.13 10.33C120.13 11.96 118.92 13.23 117.52 13.23Z"></path></g><!----><g data-v-d3f97b9e="" id="49799bd8-a5fc-4aa6-ab4f-13582ff00bad" transform="matrix(1.2811385117633836,0,0,1.2811385117633836,-6.01792820613727,-18.18193536248033)" stroke="none" fill="white"><path style="text-decoration-color:#000;isolation:auto;mix-blend-mode:normal;block-progression:tb;text-decoration-line:none;text-decoration-style:solid;text-indent:0;text-transform:none" d="M29.227 14.875c-2.477 0-4.451.141-5.938.437-1.486.298-2.741.808-3.781 1.5-1.362.868-2.318 2.076-2.875 3.626-.557 1.548-.844 4.208-.844 8V37.5c0 3.79-.669 6.445-2.031 7.969-1.362 1.523-3.712 2.281-7.031 2.281-.174 0-.441-.006-.813-.031a13.26 13.26 0 0 0-.875-.031v4.718c.198 0 .504-.006.875-.031.372-.025.64-.061.813-.063 3.319.002 5.669.771 7.031 2.282s2.031 4.141 2.031 7.906v9.062c0 3.692.287 6.353.844 7.938s1.513 2.796 2.875 3.688c1.04.692 2.314 1.202 3.812 1.5 1.499.296 3.454.437 5.907.437h1.312V80.5h-1.437c-3.122 0-5.235-.598-6.313-1.75-1.077-1.152-1.625-3.559-1.625-7.25v-9c0-4.112-.516-7.028-1.594-8.75-1.077-1.722-3-2.944-5.75-3.688 2.75-.766 4.673-2.028 5.75-3.75 1.078-1.72 1.594-4.636 1.594-8.75v-8.968c0-3.716.56-6.18 1.625-7.344s3.097-1.75 6.094-1.75c.173 0 .44.038.812.062.371.026.646.032.844.032v-4.719h-1.312zm40.171 0V19.5h1.469c3.096 0 5.191.605 6.281 1.781 1.09 1.177 1.625 3.622 1.625 7.313v8.968c0 4.114.547 7.03 1.625 8.75 1.078 1.722 2.969 2.984 5.719 3.75-2.75.744-4.641 1.966-5.719 3.688s-1.625 4.638-1.625 8.75v8.906c0 3.741-.547 6.23-1.625 7.406-1.078 1.178-3.089 1.75-6.062 1.75-.173 0-.441-.006-.813-.031s-.677-.031-.875-.031v4.625h1.532c2.527 0 4.519-.121 5.968-.406s2.659-.761 3.625-1.407c1.338-.89 2.268-2.114 2.813-3.687s.812-4.271.812-8.063v-9c0-3.764.688-6.401 2.063-7.937 1.374-1.536 3.75-2.311 7.094-2.313.174.002.44.038.812.063.371.025.645.031.844.031v-4.718c-.199 0-.473.006-.844.031-.372.025-.638.031-.812.031-3.344 0-5.72-.778-7.094-2.312-1.375-1.536-2.063-4.173-2.063-7.938v-9.062c0-3.766-.267-6.44-.812-8-.545-1.562-1.475-2.758-2.813-3.626-1.04-.668-2.332-1.159-3.843-1.468-1.511-.31-3.492-.469-5.969-.469h-1.313zM38.58 20.648c-2.686 0-4.892 2.207-4.892 4.893 0 2.234 1.528 4.13 3.587 4.707v39.504c-2.059.577-3.587 2.473-3.587 4.707 0 2.686 2.206 4.893 4.892 4.893s4.891-2.207 4.891-4.893c0-2.215-1.503-4.099-3.535-4.693.232-3.304 1.332-4.679 2.91-5.491 1.748-.899 4.433-.974 7.285-.974s5.869.078 8.41-1.229c2.26-1.162 3.834-3.554 4.121-7.347 2.091-.556 3.65-2.468 3.65-4.725 0-2.234-1.528-4.13-3.587-4.707v-2.816c2.059-.577 3.587-2.473 3.587-4.707 0-2.235-1.528-4.131-3.587-4.708v-2.814c2.059-.577 3.587-2.473 3.587-4.707 0-2.686-2.206-4.893-4.892-4.893-2.231 0-4.123 1.525-4.703 3.579l-7.279.019v-1.529l-2.446 1.41-2.445 1.414 2.445 1.412 2.446 1.412v-1.51l7.273-.021a4.93 4.93 0 0 0 3.406 3.414v2.814c-2.059.577-3.588 2.473-3.588 4.708 0 2.234 1.529 4.13 3.588 4.707v2.816c-2.059.577-3.588 2.473-3.588 4.707 0 2.216 1.503 4.102 3.537 4.695-.206 3.046-1.237 4.295-2.718 5.057-1.694.871-4.362.939-7.217.939-2.856 0-5.901-.064-8.479 1.262a7.034 7.034 0 0 0-1.769 1.293V30.248c2.059-.577 3.588-2.473 3.588-4.707 0-2.686-2.205-4.893-4.891-4.893zm0 2.61c1.276 0 2.281 1.007 2.281 2.283s-1.005 2.281-2.281 2.281-2.283-1.005-2.283-2.281 1.007-2.283 2.283-2.283zm22.84 0c1.276 0 2.283 1.007 2.283 2.283s-1.007 2.281-2.283 2.281-2.281-1.005-2.281-2.281 1.005-2.283 2.281-2.283zm0 12.228a2.264 2.264 0 0 1 2.283 2.284c0 1.276-1.007 2.283-2.283 2.283s-2.281-1.007-2.281-2.283a2.262 2.262 0 0 1 2.281-2.284zm0 12.231c1.276 0 2.283 1.007 2.283 2.283s-1.007 2.283-2.283 2.283-2.281-1.007-2.281-2.283 1.005-2.283 2.281-2.283zM38.58 72.178c1.276 0 2.281 1.005 2.281 2.281s-1.005 2.283-2.281 2.283-2.283-1.007-2.283-2.283 1.007-2.281 2.283-2.281z" color="#000" white-space="normal"></path></g><!----></svg>