<svg data-v-d3f97b9e="" xmlns="http://www.w3.org/2000/svg" viewBox="0 0 76.80169551717509 60"><!----><!----><!----><!----><g data-v-d3f97b9e="" id="623b4d54-424e-4967-b170-99400142c252" transform="matrix(0.854092341175589,0,0,0.854092341175589,-4.303770438307822,-12.704623574986883)" stroke="none" fill="black"><path style="text-decoration-color:#000;isolation:auto;mix-blend-mode:normal;block-progression:tb;text-decoration-line:none;text-decoration-style:solid;text-indent:0;text-transform:none" d="M29.227 14.875c-2.477 0-4.451.141-5.938.437-1.486.298-2.741.808-3.781 1.5-1.362.868-2.318 2.076-2.875 3.626-.557 1.548-.844 4.208-.844 8V37.5c0 3.79-.669 6.445-2.031 7.969-1.362 1.523-3.712 2.281-7.031 2.281-.174 0-.441-.006-.813-.031a13.26 13.26 0 0 0-.875-.031v4.718c.198 0 .504-.006.875-.031.372-.025.64-.061.813-.063 3.319.002 5.669.771 7.031 2.282s2.031 4.141 2.031 7.906v9.062c0 3.692.287 6.353.844 7.938s1.513 2.796 2.875 3.688c1.04.692 2.314 1.202 3.812 1.5 1.499.296 3.454.437 5.907.437h1.312V80.5h-1.437c-3.122 0-5.235-.598-6.313-1.75-1.077-1.152-1.625-3.559-1.625-7.25v-9c0-4.112-.516-7.028-1.594-8.75-1.077-1.722-3-2.944-5.75-3.688 2.75-.766 4.673-2.028 5.75-3.75 1.078-1.72 1.594-4.636 1.594-8.75v-8.968c0-3.716.56-6.18 1.625-7.344s3.097-1.75 6.094-1.75c.173 0 .44.038.812.062.371.026.646.032.844.032v-4.719h-1.312zm40.171 0V19.5h1.469c3.096 0 5.191.605 6.281 1.781 1.09 1.177 1.625 3.622 1.625 7.313v8.968c0 4.114.547 7.03 1.625 8.75 1.078 1.722 2.969 2.984 5.719 3.75-2.75.744-4.641 1.966-5.719 3.688s-1.625 4.638-1.625 8.75v8.906c0 3.741-.547 6.23-1.625 7.406-1.078 1.178-3.089 1.75-6.062 1.75-.173 0-.441-.006-.813-.031s-.677-.031-.875-.031v4.625h1.532c2.527 0 4.519-.121 5.968-.406s2.659-.761 3.625-1.407c1.338-.89 2.268-2.114 2.813-3.687s.812-4.271.812-8.063v-9c0-3.764.688-6.401 2.063-7.937 1.374-1.536 3.75-2.311 7.094-2.313.174.002.44.038.812.063.371.025.645.031.844.031v-4.718c-.199 0-.473.006-.844.031-.372.025-.638.031-.812.031-3.344 0-5.72-.778-7.094-2.312-1.375-1.536-2.063-4.173-2.063-7.938v-9.062c0-3.766-.267-6.44-.812-8-.545-1.562-1.475-2.758-2.813-3.626-1.04-.668-2.332-1.159-3.843-1.468-1.511-.31-3.492-.469-5.969-.469h-1.313zM38.58 20.648c-2.686 0-4.892 2.207-4.892 4.893 0 2.234 1.528 4.13 3.587 4.707v39.504c-2.059.577-3.587 2.473-3.587 4.707 0 2.686 2.206 4.893 4.892 4.893s4.891-2.207 4.891-4.893c0-2.215-1.503-4.099-3.535-4.693.232-3.304 1.332-4.679 2.91-5.491 1.748-.899 4.433-.974 7.285-.974s5.869.078 8.41-1.229c2.26-1.162 3.834-3.554 4.121-7.347 2.091-.556 3.65-2.468 3.65-4.725 0-2.234-1.528-4.13-3.587-4.707v-2.816c2.059-.577 3.587-2.473 3.587-4.707 0-2.235-1.528-4.131-3.587-4.708v-2.814c2.059-.577 3.587-2.473 3.587-4.707 0-2.686-2.206-4.893-4.892-4.893-2.231 0-4.123 1.525-4.703 3.579l-7.279.019v-1.529l-2.446 1.41-2.445 1.414 2.445 1.412 2.446 1.412v-1.51l7.273-.021a4.93 4.93 0 0 0 3.406 3.414v2.814c-2.059.577-3.588 2.473-3.588 4.708 0 2.234 1.529 4.13 3.588 4.707v2.816c-2.059.577-3.588 2.473-3.588 4.707 0 2.216 1.503 4.102 3.537 4.695-.206 3.046-1.237 4.295-2.718 5.057-1.694.871-4.362.939-7.217.939-2.856 0-5.901-.064-8.479 1.262a7.034 7.034 0 0 0-1.769 1.293V30.248c2.059-.577 3.588-2.473 3.588-4.707 0-2.686-2.205-4.893-4.891-4.893zm0 2.61c1.276 0 2.281 1.007 2.281 2.283s-1.005 2.281-2.281 2.281-2.283-1.005-2.283-2.281 1.007-2.283 2.283-2.283zm22.84 0c1.276 0 2.283 1.007 2.283 2.283s-1.007 2.281-2.283 2.281-2.281-1.005-2.281-2.281 1.005-2.283 2.281-2.283zm0 12.228a2.264 2.264 0 0 1 2.283 2.284c0 1.276-1.007 2.283-2.283 2.283s-2.281-1.007-2.281-2.283a2.262 2.262 0 0 1 2.281-2.284zm0 12.231c1.276 0 2.283 1.007 2.283 2.283s-1.007 2.283-2.283 2.283-2.281-1.007-2.281-2.283 1.005-2.283 2.281-2.283zM38.58 72.178c1.276 0 2.281 1.005 2.281 2.281s-1.005 2.283-2.281 2.283-2.283-1.007-2.283-2.283 1.007-2.281 2.283-2.281z" color="#000" white-space="normal"></path></g><!----></svg>